<?xml version="1.0" encoding="UTF-8"?>
<svg id="_图层_2" data-name="图层 2" xmlns="http://www.w3.org/2000/svg" viewBox="0 0 442.34 380.62">
  <defs>
    <style>
      .cls-1, .cls-2 {
        fill: #000;
      }

      .cls-1, .cls-3 {
        stroke: #000;
        stroke-miterlimit: 10;
      }

      .cls-2, .cls-4, .cls-5, .cls-6, .cls-7 {
        stroke-width: 0px;
      }

      .cls-4 {
        fill: #c1272d;
      }

      .cls-3, .cls-7 {
        fill: #fff;
      }

      .cls-5 {
        fill: #fc9173;
      }

      .cls-6 {
        fill: #852410;
      }
    </style>
  </defs>
  <g id="_图层_1-2" data-name="图层 1">
    <path class="cls-7" d="M57.04,304.83s-65.65-53.69,27.85-160.08c93.5-106.39,165.11-114.34,265.57-8.95,100.46,105.4,38,169.03,38,169.03,0,0-1.2-17.9-14.13-23.86,0,0-.99,29.83-19.89,42.75,0,0,2.98-8.95,2.98-20.88,0,0-16.91,22.87-44.76,34.8-27.85,11.93-84.54,39.77-170.08,4.97,0,0-39.79-16.9-52.72-38.78,0,0,1.99,17.9,4.97,22.87,0,0-27.85-14.91-21.88-45.74,0,0-14.92-.99-13.92,19.89v4.97l-1.99-.99Z"/>
    <path class="cls-6" d="M403.87,271.82c.79,1.19,1.16.84,1.59-.4,2.22-8.1,3.8-19.71,3.53-32.81-1.2-16.81-6.28-34.09-14.59-50.3-6.48-13.09-15.9-26.71-26.55-39.69-8.4-9.43-17.15-19.15-26.3-28.59-.27-.27-.54-.54-.82-.81C243.34,18.79,161.85,45.16,77.76,147.95c-21.9,27.12-36.72,51.19-42.22,83.85-1.12,10.39-.71,21.29,1.83,32.6l.03.12c.94,3.17,1.69,3.26,2.59.9,3.06-7.37,11.95-26.13,31.35-43.24,5.05-4.48,11.02-9.01,16.49-12.57,5.86-3.79,10.02-5.99,15.06-8.29,5.13-2.35,9.82-3.87,14.96-7.2,4.84-3.09,10.34-7.86,13.76-11.52,3.95-4.21,5.18-6.5-2.07-9.13-5.34-2.19-13.36-2.94-18.15-3.61-1.26-.21-2.56-.43-3.58-1.04-3.59-1.92,7.05-10.36,10.25-12.78,5.82-4.21,13.15-7.89,20.19-10.07,3.91-1.25,7.84-1.9,10.52-2.48,3.97-.76,4.52-2.25,1.85-4.7-3.25-3.18-9.99-6.62-13.48-10.6-4.43-4.57-1.13-11.04,3.62-14.9,5.73-4.63,13.67-5.16,20.67-3.96,17.26,2.18,34.48,19.86,41.18,41.43,4.25,11.89,3.09,25.18,3.26,37.8.01,3.84,0,7.12.47,9.48.33,1.6.84,2.88,2.01,3.88,1.27,1.05,2.98,1.45,4.64,1.7,3.36.46,8.18.43,12.48.44,7.52-.06,12.42-.29,12.18-9.23.04-6.97-.33-16.22-.43-23.28-.03-5.69-.61-10.89,1.06-15.83,3.91-13.28,18.43-42.4,42.71-45.26,8.98-1.38,20.08-.58,26.24,5.6,8.29,10.26-12.45,19.41-19.24,23.64-1.78,1.09-.11,1.4,1.04,1.67,3.85.79,12.64,2.55,22.7,7.2,2.94,1.35,5.9,2.86,8.7,4.46,4.81,2.74,10.1,6.24,13.71,9.61,3.72,3.48,1.51,5.19-3.7,6.49-6.07,1.71-13.8,2.46-18.89,6.62-3.64,3.16.76,7.56,3.51,10.24,5.57,5.38,14.3,11.02,21.71,15.15,10.27,5.55,21.18,10.46,30.29,18.41,20.09,17.41,29.83,38.9,36.84,52.28Z"/>
    <g>
      <path class="cls-3" d="M327.01,68.54s31.57-30.8,43.29-38.4c11.71-7.6,15.71,8.4,15.71,8.4,0,0,9,21,8,47s-2,50-2,50l-2,1s-38-47-58-63l-2-2-3-3Z"/>
      <path class="cls-3" d="M116.11,68.83s-31.57-30.8-43.29-38.4c-11.71-7.6-15.71,8.4-15.71,8.4,0,0-9,21-8,47,1,26,2,50,2,50l2,1s38-47,58-63l2-2,3-3Z"/>
    </g>
    <g>
      <path class="cls-4" d="M77.49,108.37s-7.94-1.99-4.96-42.7c0,0,11.92,1.99,24.82,23.83,0,0-18.87,14.89-19.86,18.87Z"/>
      <path class="cls-4" d="M365.39,108.15s7.94-1.99,4.96-42.7c0,0-11.92,1.99-24.82,23.83,0,0,18.87,14.89,19.86,18.87Z"/>
    </g>
    <path class="cls-1" d="M439.92,224.9c-7-32-27-68-27-68,29-65-12-145-12-145,0,0-13-21-43-6s-60.8,42-60.8,42c-81.8-44-155.2,0-155.2,0,0,0-11-6-24-19s-63-49-88-1-2,132-2,132c-78,157,35.2,162,35.2,162,177.2,131,311.8,0,311.8,0,62,0,72-65,65-97ZM370.15,30.54c11.71-7.6,15.71,8.4,15.71,8.4,0,0,9,21,8,47s-2,50-2,50l-2,1s-38-47-58-63l-2-2-3-3s31.57-30.8,43.29-38.4ZM56.97,39.23s4-16,15.71-8.4,43.29,38.4,43.29,38.4l-3,3-2,2c-20,16-58,63-58,63l-2-1s-1-24-2-50,8-47,8-47ZM389.73,301.9s-1.2-18-14.2-24c0,0-1,30-20,43,0,0,3-9,3-21,0,0-17,23-45,35s-85,40-171,5c0,0-40-17-53-39,0,0,2,18,5,23,0,0-28-15-22-46,0,0-15-1-14,20v5l-2-1s-66-54,28-161,166-115,267-9,38.2,170,38.2,170Z"/>
    <g>
      <circle class="cls-2" cx="152.53" cy="213.52" r="22.5"/>
      <circle class="cls-7" cx="152.03" cy="206.02" r="9"/>
    </g>
    <g>
      <circle class="cls-2" cx="285.53" cy="212.52" r="22.5"/>
      <circle class="cls-7" cx="285.03" cy="205.02" r="9"/>
    </g>
    <g>
      <ellipse class="cls-2" cx="222.03" cy="246.52" rx="32" ry="21.5"/>
      <path class="cls-7" d="M235.03,243.77c-8.18-5.33-18.82-5.33-27,0-2.28,1.46-5.35,1.76-7.18.07t0,0c-1.83-1.68-1.01-5.47,2.27-7.61,11.15-7.27,25.66-7.27,36.82,0,3.29,2.14,4.1,5.94,2.27,7.61t0,0c-1.83,1.69-4.9,1.39-7.18-.07Z"/>
    </g>
    <path class="cls-5" d="M223.05,282.02l-33.03,16.68c5.46,11.39,17.62,19.32,31.76,19.32s27.04-8.41,32.24-20.36l-30.97-15.64Z"/>
    <g>
      <path class="cls-2" d="M227.88,272.96c-.41,13.06-17.13,25.09-33.86,24.62-16.72.48-33.45-11.56-33.86-24.62-.63-6.54,4.19-10.68,6.74-9.6h0c2.69,1.09,3.96,5.41,5.04,9.4,1.55,8.58,11.82,15.06,22.08,14.87,10.26.19,20.53-6.28,22.08-14.87,1.08-3.99,2.35-8.31,5.04-9.4h0c2.55-1.08,7.38,3.06,6.74,9.6Z"/>
      <path class="cls-2" d="M283.88,272.96c-.41,13.06-17.13,25.09-33.86,24.62-16.72.48-33.45-11.56-33.86-24.62-.63-6.54,4.19-10.68,6.74-9.6h0c2.69,1.09,3.96,5.41,5.04,9.4,1.55,8.58,11.82,15.06,22.08,14.87,10.26.19,20.53-6.28,22.08-14.87,1.08-3.99,2.35-8.31,5.04-9.4h0c2.55-1.08,7.38,3.06,6.74,9.6Z"/>
    </g>
    <path class="cls-2" d="M260.59,302.39c-12.84,35.95-66.28,35.95-79.13,0-1.87-5.18-.35-10.38,2.14-10.56.65-.08,1.29-.16,1.94-.25,2.5-.2,4.88,3.19,6.22,6.82,9.5,26.59,49.03,26.59,58.52,0,1.34-3.64,3.73-7.03,6.22-6.82.65.08,1.29.16,1.94.25,2.48.18,4,5.37,2.14,10.56Z"/>
  </g>
</svg>